<mxfile host="65bd71144e">
    <diagram id="JBI_FJsBgARIebrV1lQ3" name="Page-1">
        <mxGraphModel dx="1163" dy="458" grid="1" gridSize="10" guides="1" tooltips="1" connect="1" arrows="1" fold="1" page="1" pageScale="1" pageWidth="827" pageHeight="1169" math="0" shadow="0">
            <root>
                <mxCell id="0"/>
                <mxCell id="1" parent="0"/>
                <mxCell id="12" value="" style="whiteSpace=wrap;html=1;aspect=fixed;fillColor=none;strokeColor=#FF8000;" vertex="1" parent="1">
                    <mxGeometry x="320" y="120" width="120" height="120" as="geometry"/>
                </mxCell>
                <mxCell id="10" value="VPC" style="points=[[0,0],[0.25,0],[0.5,0],[0.75,0],[1,0],[1,0.25],[1,0.5],[1,0.75],[1,1],[0.75,1],[0.5,1],[0.25,1],[0,1],[0,0.75],[0,0.5],[0,0.25]];outlineConnect=0;gradientColor=none;html=1;whiteSpace=wrap;fontSize=12;fontStyle=0;shape=mxgraph.aws4.group;grIcon=mxgraph.aws4.group_vpc;strokeColor=#248814;fillColor=none;verticalAlign=top;align=left;spacingLeft=30;fontColor=#AAB7B8;dashed=0;" vertex="1" parent="1">
                    <mxGeometry x="240" y="80" width="280" height="280" as="geometry"/>
                </mxCell>
                <mxCell id="2" value="" style="shape=image;verticalLabelPosition=bottom;labelBackgroundColor=#ffffff;verticalAlign=top;aspect=fixed;imageAspect=0;image=data:image/png,iVBORw0KGgoAAAANSUhEUgAAAOMAAADeCAMAAAD4tEcNAAABDlBMVEX///8DKioAxY4Qh3UAGBiXpKQAIiIAw4lcaGgAKCgAISFc0agAExMAHx8AhHIAHBy7v78ADg5fopZxf3+X5MvEzMyBiooUxZCbycHp7e0qRUV6hIQAFxcAgGwAAAA+Vla0u7va39/09vbw/Png9/D1/fvE7+HM09PY9eyOm5uptLS169oty5q62dTK4t7k8e9Fm4xKnpBu2rhH0KSN4cbC39qq6dUkj352s6nN8ucQNDRBWVkZOjpQZGSNwLcwS0uu0swBs4ICgmKL28cAa1UBoXcAGB8LYlcCUUIDQzkOd2gCeFsDNjECXkqZxr+Du7FrkYwITEUDER4AMCsAWU5cxqFctJVclINce3RfdHRHgUXSAAASjUlEQVR4nO1d+UPbRha2jJEYnzgcrgkGH5jTCcEQiAkEur1bmmy73e3y//8jqxlJtt6befZoNJYhy/dbiezO5zm+eadyuflhtH9ysr83x//BotFbH+Q9z8s3SieLHsq8sD/w8gE8r/R1zuVlxFCwzI8WPZ45AFDkLL++9bqPKPrYX/SYLGNvIFHMD3qLHpVdDOVpzHvDRY/KKg4VFH2SX9W5c66imPfOFz0uizhRTuNXdbb2FAfO13bsrBPT6E/k+qLHZgl7DYqij6/kTqfSjfFEfh36gXSjAWfVO1z0+GygBDldokO2tOjxWQC6qPqSCE9Z7/lfW/syoxFi3V/0GNMC6oYnVuY5/Ntz148eOmHEDfUQ/O3ZXwQu4JRdBH+FavLM9QPNWCNUfGRNes/6IlCCE3YZ/V21S58pkG5MNh66pT9nQxKajXElPEmiH6dv7u/fP1GFQSsSWMTUKpbQv39XFTh7M/cBJwc+WcCCHFHLGOGtz3BJoNo6O81g1MlwMfVgGSpVBeN+KWQoWF49tancAxOVb6CZwlalUj/uW0txVKtPjCQ6cKSJ0tCPt9UlhOr7DEauDVI3IvTRjyDrR/+dzHGpm8no9YAYKA7OyynHrsCXFqbok/yQwdg1caJxk0H2B3ZEnkqzyNF6m8HotYDtDaVHY4Z+vFJyrJ5lMX4dXGhZFsNphuR7xUoVE3k//+Hr4FBHGCT9aMQf654pp9GfyHdP41qnJ/BTp/uemEaf5JcMGMzETN2IgO2PybbtXxHTyEk+hTvdue6FGx+/E/34QFN8EvqBBz5t/xD6cQpZXV3BY2fh+qFwN9IgHJFQN1pvPoPduXj9mG5vYJRU+vEWUernrhDpDHhMATYoZgQ0sHki9ANeVPnSfANZL1g/dHUjgkI/oG5UX/HHoFy2Ps+dxxRgB/FMv6KsHz20MIVUYDtrkfqhrxsRJEMSHjCtUCmgmixSPxI53EKgn+U7OGFX4VcgOWktbCKxbmg5TtG16Hu4Ur+JHvtGsUsXgWnuRhrD+Id++PEn9QnaRxeBBekHNhs1AxkgnP6z+1BVM7l/EvphGpCK6cc/fnTcP4gVefUE9GMEZhHag1MxcTd/+wtzHOdX9cmC9ONqEceOeYB47L/6reZTZL8QCvFq4fqB0xsS7JfoPP72gU+jU4wmElmei9cPpBuJEv7C3+f3CqfosIdgoj7hxz4tWD/SBU5FGs8PrhPA/Ul9ciL3QCtjtzntt9CC0I9fIo7soaX2wN1LVleW0HM30vB154c/nQi+fqhXIjK77lOPOwGQvZE8odG3O4MDJ8Svao/Ge3i0XmU5kUp7PhHWffmfgD0QyoDcIBnqh7a7kUYHTKNT2FA/hvQjQ0NyRnxGB5uFOEXHvSOeW5R+zIyzzUbHBdPoOPW2+sHeYhyRKXVDYLcIKTrspql+EutHqqFrI61u+FitOxjbR8Szi9APrfyFGbhzJY7suqN+FunHuyzi56WE7kYFjuVpdJzaI/F09o7IfTiLJrrRvGYKjuzp6Ac6cDTcjRKQbszUD5gOMX9DMkmYikDHUU3jFP04vZKiBfOEkbsR4bGmpuiwLeI8ydYRCXXDqF5jo0xMo+OUNfVjro5IpBueSQL8FtANBv+D0o8MHZGomspE/o/LgBU8YmtrxKeQ/2qO+oHdjQbT2L2Lk2LljS3w38UD9ceyc0RaqEfZBNNY20T3geJH4nNZ6Yd13WCsm+t+BPuT1g8wkXPTjzTuxhArlTjF2nIOn7PsjtAPVbjZPtbT2xsHwGx0dwWfR2BnlZfVH0X5rfNxRGplN87ATXxdsnJb/LGzAyaSMiTfZGBIWqibaoPzpRIZGq/B/bVA6ccZEY61B6QbeRPduAETVosEvwn/zrT0o3pl35DEVbgGX7GMdUP9D8Vb4vMoEcJ6RqQFdyM0G1lxsu+6u3CfUoYk1A/rGZEW6orXgL0Bzs+Nnfg/sRviGz7PVT8s1PcdMKAbUAdXoH4cq78C64fVi4AN3fgYp8HKq+Afn4B+WHc3Fm/RqQgXMumIPJubIYnDVEZmI5ioHWwoNsFKZi5hSKI8UIv6gcpwTOwNpBuyzsMHKnr60ZLi66aw4W6EMl+Wf/8u8CuzyqriW3KSflhzRKIDJ32YKib/E7TBRNKBrLlktOAwlYnZCHfbtXIb3QL9qFP6MQ9HZA+u1PS6QcnfAdSP6wz1w4ZuFOKjJ++jr4F+FDT1495gQAgozd3I3XindR3NdSpgIilH5FvrjkgLZiN0S1Uo+zCXO4InExXIemXZkET2RsPgR0P2xg6xz3KygZlRICt5VrwEqBvkNuNol+G9nXjsk1VHpI30hmsN3QjRvdV0REKRTKUffST/Jmbjbdzd6NQIt1uIgzr4QahAlk1HpAXd2ChqLb8Ij+AXIQNZ9uwPrBsm6Q16x8gYTTiRVCIE1g+DgYVIWk2lAOFupLEJLgKagSzzRAgbYSoY36gRbsX4J/QckafIEWmqHxbCVEfAmCio7A2MZTDzmokQLUNHJKqmGqS3N5iO2Q71g2231Y8h+8PQEWlBN6CXpjBdNyKgQBbliLShHzbcjcUp7kYaSD+oX+YstSGJzUYT3diFtxbCfSGhAz3KDnHBxYkQycdnw96AYYwV7Q9C/Si8Jh77kNKQxGEqgwMHqcA2IeeqT0LFcSn9QI7IpMcOClPNxd045aPAVCFvDl9SOSIt6AYyG+u02SgDOSILxE7upXJEWnA3rul5Z9RYnb9+rKdPi4NhKraV8ON6+pEikGXd3chqhLeURKesFch6b+yIzM7dSAM6Irepmy7uZ6L79ajJuGfi3EMHzmx7A6MLDUlGKA/WD92xWsiKJ9MbEnwF1A/qBmEWyLKhG1D+C0l0IwLSjyLhQUD6oXkRsJ4Vn1A3IrS3wY2eOpk/GzgiLbgbkW7UzKK9Xa1IkIl+YN0wcjcC3Si0Db6CA+kHZX8kD2TZ0A2Q3Uim3c6GZiJEUv1IXYWbw7pR1DUbZXTLcwlkWXA3Hid1N9LY1AtkfUgUyELpDSZhqm4RTqOJbowBNYjSj9NEGfUWdAMGEclNpIfjmlYk4ZsEiRA20htcuIfSZQl19Y7oHmo0PG0iLegGrKba1nM30kCOSId4TF8/kjX9U48JLq7d1MleKCNUM5BFXgT2kL2RPr1he1aYajaacCJd4ghD9gdZ0WtDN2DWWxrdiHCkF8jSc0TadzeW9d2NU76TaTkie1qBLPthKsr5mwzHBa2rIUykUwey0HtiTeyNJvT9Fixll8KM+oKe/bGkOnash6lmpDfoA6YUsGvisXu4WhWOSAtVuLCainSKJoelQFYfyX/qJhxkcNQAnbrW3WlWIoSN9AZwNpBOJhMg+8NMP5BuGLkb4YFDVd0aAemHbiIEnG8YpspbCFPZ0Y3xl4OJJF3Sn6Y4InF2o8EoUPHClOxGI2zBjHrijthfgohdBHBanFGYCpqNtnQjArI/NPUjZkjaD1NRYzAH1A8yReSMyIhE7sa8SRMOaMvW2kY8pqFT0HJEokLQsSFpwd3YrkCz0ZDINKQKZGF7w8TdmDgtLjmQI7JIBbKQfgR/Td/0D5mNidIb9AENSdI2/aTIiMS94k3kH1r/lK83LaB+UBeBviKQdZE+K74DvMYp3Y00oCOSXC2wo5C40QGXqlGYCrpUGTMmMQvw8Cb1CRiS/GhF+dRGb9uOVxOzStuYwyyAVFH6Rgz1w1+s0Ps/WDfAd/EaVXZ9tDw3gOY7lX9+QwDsSP8egK6qngG+je9GXzkKcwNomuT+VW0pAX0evkSi6L8JIMfMwP5Y0sGz5uj+pcWx+gZH44w4wp64mXH8aTbBYD/iNpwm+F1uw5kB2K+zCfq46mHXsRFA/+bMKD7oTSO3IS1syAbuipsFXL1pDHzJw2c5ka7mqRr4dPYG6Un+XJk9KrsUH8jXKQKKkbfjsJGaZOPnbGcSvKJmGsWxFdWzsFx/+7OSlYIwl+lIY7W1dB+/xu4PxS3OnKJ/o/v+Xz/WKsWiO1cUi5Xaw1+tpeostKpngKGYy/2LYSkd/v2fv//7uDJnPP7371ez8eHL/enTeJPrC17wghe84AUveMELXvB/h35vjwMk3zaPNoksCf9fpJBCe+1IGaVubq7BOo6DtUf113Zer8W/9XiTxDKdU9i/GKoDbPvD84awEgfDyzHN7nW5tqPMIOjelQu4v+byTqWsak7Uvdmu7MSH3inX4B/GT7JCrTD51rWdGok6WeDbH/g0FLlg6/mJDew/UQozG1bLVMu3Dd+wR/l3ol5P1a+BpyaCtCMerlO2+uM59bH+K9vTnAdkaajIQ5WyiA6xY8rzhr2Io+NuKUK/fNwoR6TJI1RKjv7vUYlzFFlXisKaZU4qVgLnTHE/szoVkBbJNrjARqLIWQ5GEUdlv9NEHIuIY1O0lJdCyge8FivenOTYRVEpNvlvutueimPkXvQajcGgES1aj7/vN+CoCnCn4ihm1mEVuNq6PKQPm+R22mPwxjlsa/LfdHaIimOQuuENTkReyt7JMGDJt23I0dmRtmQ6jkE/I5Rv/ciD6lTXuNxaRTe1R8ExKBQfxNKn+xd5L0g3ijjKLcBScgwqdsCWFBV1ZbIAOxXHIHUDhvoPzz2vMZpw9Lck0oS0HIOGHfXJN4i+nFM6BaXiyHs2SyliveFwfOaIpHT8A6flmNvgKdKTPBohPKxAJ++k4ShSN6lEf86xdsRzwXBVQWqOQbmHexNOHN+MU5tapOLI/0JlwXOO9Q2RDMZqQLPTc8yt8C0ZZpYv8wwi8uUcHOnnkUi8DTgGKbbFj/G9YoFjh9cmMSH5oi7S3Z2WnpxqPw5U+zFEyLErNBtsSQscc6tiS/K3kYjNOL0AKxVHEZYiNmTIMayhiHfMtsExd8Tlwj9LX/PNsDO9w0wqjmE4XJm1GXEMSreYM7lcWOEY9NEp3rFZmzGXkmNYS+U1LuX82zHH3OttB8iXHY5iSzqcYnFWUWs6jlESjtcoXUILOcYx6I8xuZjY4Tgu34kvETXScZwU/vmW42C4HpvOCccwrXC8aSxxjAqJqJ4iE6TkmBvFYv4+z/OxIyDGMbe6w2LZ4LY4dkVapDu7bUdajv4tHGQ2eN5FwDLOMWhC6N41x+O2wXFZ3BQ12nal5uhfUNdLMXeHb2mJFQs45uJb0hLHg7BmgOxtPIYFjj4OT4aDRsQzIAk5imbiLKgkssOxe1cMjlVfQOZ6rsbRuyxFfgBeAwA5BnVNTHjU7HAUN/FrkdI/X31E6AkLOSgCQBxD8533rKM4lnV8VhHavJdq/ShYH9R7R0JY5ZjL7QXZjgOZY5B8z7ekgmN3l6lr4lYL6g5r4r2dfNzHYn1QrzsKYJljrhe86+hQ5hg0Py0fqTjmVvw1V1RUyPADWdF+rMsb6bMKZ6YwbDBscwxy5f17usQxKA9ntY0DBUde2MUq8rc56n3Kb+SsEqxQsSXLNu3HmY/1BoFRKXPMLYt1dX3MZI7Clpa7EGxwZ3tdmiPRvGs73KbBlqxY8QMM9Tj2z0mOubVtce44ci1lUxgnN4iNeLehXCTcFQ7j8U1clBJNK8YiOfZP1oExEYwdlhT1RnKbmGAeVWs1dPWKbSnVi/JxSMWHwm8j30d56WncLBY/XZGeKIpjn7uD426MYJ8BU3HfVwopkhXUroyUHCev8ZM4Bn2164CksIPlFkXLO8gsDl5lmdy/OhJDncxkWD4Vd1D1uU7gSFZflJL5R5OS47jXiVz3G/TkKOyODaWDj2L9Si9PO+C7GkZ1OmK1hq/T1ecYuMAbUQlxUMwIfTdiVYYRnAgjEQCJYgEyx8ggkjl2t0SCvOusHHeazc7xiisiT9v4AtDkDhx3C/qogi15Q2xJcq2GVajDw16vdzgM79vQ3I+yjLl93OfB5FH43GCP5Bg2lFTUbx9cC1KsWC4zt14OeqIUsJNdRAKYi79YrALqpYDkmXMY2UqD8W0bl9v2whIO/5/PS8NhaRA9x/cxwTHsoaaqUT9wowT5qFSP1SWKojF1XboViBs69S45WjtQbx9lQ5FJvngsoTrwuPL3a8oxqxx/Dywj+rh0b+vxLjKsUpNvOHzCaoq2JMLXQHSH4RcMwpQ+yUPjV+V+O5FirF4j8EV23FpN3azlaKdYq6h9vhu3hZrLBNyy86jYX8d1VmSqD7d3mFtQZ0Ns1CtFyj15WBpPjuedqzsY9NcHcfvYawyjPbvxqBqjj+7x7SPpZjrY3L25dpzrrY/L6k+vbe2qmRxt3VF3nY3HW/oatF9q5PlsDkoj8qLa2/ft44Bi41zhhEyMbqfTsdx5ZDr6h/v7o5nFxHv+U/5jsd/hf8N6HVTHF+pMAAAAAElFTkSuQmCC;" parent="1" vertex="1">
                    <mxGeometry x="360" y="160" width="81.8" height="80" as="geometry"/>
                </mxCell>
                <mxCell id="3" value="TypeScript&lt;br&gt;Jest&lt;br&gt;Vuetify&lt;br&gt;Sass" style="text;html=1;resizable=0;autosize=1;align=center;verticalAlign=middle;points=[];fillColor=none;strokeColor=none;rounded=0;" parent="1" vertex="1">
                    <mxGeometry x="630" y="170" width="70" height="60" as="geometry"/>
                </mxCell>
                <mxCell id="8" value="ECS&lt;br&gt;(Fargate)" style="text;html=1;resizable=0;autosize=1;align=center;verticalAlign=middle;points=[];fillColor=none;strokeColor=none;rounded=0;" parent="1" vertex="1">
                    <mxGeometry x="360" y="120" width="60" height="30" as="geometry"/>
                </mxCell>
                <mxCell id="16" style="edgeStyle=none;html=1;entryX=0.286;entryY=0.375;entryDx=0;entryDy=0;entryPerimeter=0;" edge="1" parent="1" source="9" target="10">
                    <mxGeometry relative="1" as="geometry"/>
                </mxCell>
                <mxCell id="9" value="user" style="shape=actor;whiteSpace=wrap;html=1;labelPosition=center;verticalLabelPosition=bottom;align=center;verticalAlign=top;" vertex="1" parent="1">
                    <mxGeometry x="80" y="160" width="50" height="50" as="geometry"/>
                </mxCell>
                <mxCell id="11" value="" style="points=[[0,0,0],[0.25,0,0],[0.5,0,0],[0.75,0,0],[1,0,0],[0,1,0],[0.25,1,0],[0.5,1,0],[0.75,1,0],[1,1,0],[0,0.25,0],[0,0.5,0],[0,0.75,0],[1,0.25,0],[1,0.5,0],[1,0.75,0]];outlineConnect=0;fontColor=#232F3E;gradientColor=#F78E04;gradientDirection=north;fillColor=#D05C17;strokeColor=#ffffff;dashed=0;verticalLabelPosition=bottom;verticalAlign=top;align=center;html=1;fontSize=12;fontStyle=0;aspect=fixed;shape=mxgraph.aws4.resourceIcon;resIcon=mxgraph.aws4.ecs;" vertex="1" parent="1">
                    <mxGeometry x="320" y="120" width="40" height="40" as="geometry"/>
                </mxCell>
                <mxCell id="21" style="edgeStyle=none;html=1;entryX=0.25;entryY=1;entryDx=0;entryDy=0;" edge="1" parent="1" source="13" target="2">
                    <mxGeometry relative="1" as="geometry"/>
                </mxCell>
                <mxCell id="13" value="" style="points=[[0,0,0],[0.25,0,0],[0.5,0,0],[0.75,0,0],[1,0,0],[0,1,0],[0.25,1,0],[0.5,1,0],[0.75,1,0],[1,1,0],[0,0.25,0],[0,0.5,0],[0,0.75,0],[1,0.25,0],[1,0.5,0],[1,0.75,0]];outlineConnect=0;fontColor=#232F3E;gradientColor=#F78E04;gradientDirection=north;fillColor=#D05C17;strokeColor=#ffffff;dashed=0;verticalLabelPosition=bottom;verticalAlign=top;align=center;html=1;fontSize=12;fontStyle=0;aspect=fixed;shape=mxgraph.aws4.resourceIcon;resIcon=mxgraph.aws4.ecr;" vertex="1" parent="1">
                    <mxGeometry x="360" y="320" width="40" height="40" as="geometry"/>
                </mxCell>
                <mxCell id="14" value="ECR" style="text;html=1;resizable=0;autosize=1;align=center;verticalAlign=middle;points=[];fillColor=none;strokeColor=none;rounded=0;" vertex="1" parent="1">
                    <mxGeometry x="410" y="325" width="40" height="20" as="geometry"/>
                </mxCell>
                <mxCell id="19" style="edgeStyle=none;html=1;exitX=0.5;exitY=0;exitDx=0;exitDy=0;entryX=0.5;entryY=1;entryDx=0;entryDy=0;" edge="1" parent="1" source="15" target="10">
                    <mxGeometry relative="1" as="geometry"/>
                </mxCell>
                <mxCell id="15" value="devloper" style="shape=actor;whiteSpace=wrap;html=1;labelPosition=center;verticalLabelPosition=bottom;align=center;verticalAlign=top;" vertex="1" parent="1">
                    <mxGeometry x="355" y="410" width="50" height="50" as="geometry"/>
                </mxCell>
                <mxCell id="22" value="push docker image" style="text;html=1;resizable=0;autosize=1;align=center;verticalAlign=middle;points=[];fillColor=none;strokeColor=none;rounded=0;" vertex="1" parent="1">
                    <mxGeometry x="380" y="380" width="120" height="20" as="geometry"/>
                </mxCell>
                <mxCell id="23" value="HTTP request" style="text;html=1;resizable=0;autosize=1;align=center;verticalAlign=middle;points=[];fillColor=none;strokeColor=none;rounded=0;" vertex="1" parent="1">
                    <mxGeometry x="145" y="200" width="90" height="20" as="geometry"/>
                </mxCell>
                <mxCell id="24" value="deploy cluster" style="text;html=1;resizable=0;autosize=1;align=center;verticalAlign=middle;points=[];fillColor=none;strokeColor=none;rounded=0;" vertex="1" parent="1">
                    <mxGeometry x="395" y="270" width="90" height="20" as="geometry"/>
                </mxCell>
            </root>
        </mxGraphModel>
    </diagram>
</mxfile>